<svg xmlns="http://www.w3.org/2000/svg" xmlns:xlink="http://www.w3.org/1999/xlink" width="500" zoomAndPan="magnify" viewBox="0 0 375 374.999991" height="500" preserveAspectRatio="xMidYMid meet" version="1.0"><defs><clipPath id="c7389a69fa"><path d="M 75.371094 16 L 299.601562 16 L 299.601562 364.824219 L 75.371094 364.824219 Z M 75.371094 16 " clip-rule="nonzero"/></clipPath><clipPath id="da12751282"><path d="M 119 10.359375 L 256 10.359375 L 256 258 L 119 258 Z M 119 10.359375 " clip-rule="nonzero"/></clipPath><clipPath id="ab08a6cbca"><path d="M 135.265625 75 L 239.453125 75 L 239.453125 169 L 135.265625 169 Z M 135.265625 75 " clip-rule="nonzero"/></clipPath></defs><rect x="-37.5" width="450" fill="#ffffff" y="-37.499999" height="449.999989" fill-opacity="1"/><rect x="-37.5" width="450" fill="#ffffff" y="-37.499999" height="449.999989" fill-opacity="1"/><g clip-path="url(#c7389a69fa)"><path fill="#ff3131" d="M 226.601562 352.035156 C 226.601562 355.921875 223.445312 359.082031 219.558594 359.082031 L 155.433594 359.082031 C 151.554688 359.082031 148.394531 355.921875 148.394531 352.035156 L 148.394531 314.824219 L 226.601562 314.824219 Z M 256.1875 223.746094 C 282.609375 195.367188 299.613281 153.890625 299.613281 117.855469 C 299.613281 69.316406 268.71875 30.925781 225.558594 16.5625 C 248.703125 43.886719 261.566406 79.117188 261.566406 117.179688 C 261.566406 162.3125 243.394531 213.683594 214.867188 252.65625 C 226.847656 248.152344 238.058594 240.855469 248.15625 231.664062 L 228.234375 300.527344 L 146.765625 300.527344 L 126.84375 231.671875 C 136.949219 240.859375 148.152344 248.152344 160.132812 252.65625 C 131.605469 213.6875 113.4375 162.316406 113.4375 117.179688 C 113.4375 79.117188 126.300781 43.882812 149.445312 16.5625 C 106.277344 30.925781 75.375 69.316406 75.375 117.855469 C 75.375 153.894531 92.390625 195.375 118.816406 223.753906 L 141.347656 301.632812 C 140.933594 302.136719 140.648438 302.765625 140.648438 303.476562 L 140.648438 309.121094 C 140.648438 310.5 141.613281 311.605469 142.886719 311.925781 L 142.886719 352.035156 C 142.886719 358.957031 148.515625 364.589844 155.433594 364.589844 L 219.558594 364.589844 C 226.480469 364.589844 232.113281 358.957031 232.113281 352.035156 L 232.113281 311.925781 C 233.386719 311.601562 234.351562 310.496094 234.351562 309.121094 L 234.351562 303.476562 C 234.351562 302.765625 234.070312 302.144531 233.652344 301.636719 L 256.1875 223.746094 " fill-opacity="1" fill-rule="nonzero"/></g><path fill="#ff3131" d="M 187.496094 263.296875 C 185.265625 263.296875 183.054688 263.191406 180.847656 263.007812 C 178.519531 262.808594 176.171875 262.472656 173.816406 262.066406 C 173.792969 262.105469 173.722656 262.140625 173.722656 262.179688 L 173.722656 278.328125 L 201.265625 278.328125 L 201.265625 262.179688 C 201.265625 262.140625 201.195312 262.105469 201.175781 262.066406 C 198.824219 262.472656 196.476562 262.808594 194.152344 263.007812 C 191.945312 263.191406 189.726562 263.296875 187.496094 263.296875 " fill-opacity="1" fill-rule="nonzero"/><g clip-path="url(#da12751282)"><path fill="#ff3131" d="M 170.21875 255.746094 C 173.863281 256.601562 177.558594 257.203125 181.308594 257.515625 C 183.363281 257.6875 185.417969 257.789062 187.496094 257.789062 C 189.570312 257.789062 191.636719 257.6875 193.691406 257.515625 C 197.4375 257.203125 201.132812 256.601562 204.773438 255.746094 C 235.507812 217.152344 255.398438 163.738281 255.398438 117.179688 C 255.398438 77.21875 240.65625 40.53125 214.410156 13.476562 C 209.117188 12.28125 203.726562 11.324219 198.167969 10.847656 C 194.660156 10.546875 191.097656 10.378906 187.496094 10.378906 C 183.898438 10.378906 180.339844 10.546875 176.832031 10.847656 C 171.273438 11.324219 165.878906 12.277344 160.585938 13.476562 C 134.34375 40.53125 119.601562 77.21875 119.601562 117.179688 C 119.601562 163.75 139.492188 217.160156 170.21875 255.746094 " fill-opacity="1" fill-rule="nonzero"/></g><g clip-path="url(#ab08a6cbca)"><path fill="#ffffff" d="M 221.085938 105.75 C 220.007812 105.378906 218.886719 105.027344 217.730469 104.691406 C 217.921875 103.917969 218.097656 103.15625 218.25 102.40625 C 220.789062 90.074219 219.128906 80.140625 213.457031 76.871094 C 208.019531 73.734375 199.125 77.003906 190.140625 84.820312 C 189.277344 85.574219 188.410156 86.367188 187.546875 87.203125 C 186.96875 86.652344 186.394531 86.117188 185.820312 85.605469 C 176.40625 77.25 166.972656 73.726562 161.304688 77.007812 C 155.871094 80.152344 154.265625 89.488281 156.550781 101.175781 C 156.773438 102.304688 157.03125 103.457031 157.320312 104.628906 C 155.984375 105.007812 154.695312 105.410156 153.464844 105.84375 C 142.425781 109.691406 135.378906 115.71875 135.378906 121.976562 C 135.378906 128.433594 142.945312 134.917969 154.441406 138.847656 C 155.347656 139.15625 156.289062 139.449219 157.257812 139.726562 C 156.945312 140.992188 156.671875 142.234375 156.441406 143.445312 C 154.261719 154.929688 155.960938 164.046875 161.382812 167.171875 C 166.976562 170.398438 176.371094 167.082031 185.515625 159.085938 C 186.242188 158.457031 186.964844 157.785156 187.691406 157.085938 C 188.636719 157.988281 189.578125 158.847656 190.507812 159.652344 C 199.371094 167.277344 208.121094 170.355469 213.53125 167.222656 C 219.121094 163.984375 220.941406 154.1875 218.582031 142.273438 C 218.402344 141.363281 218.191406 140.433594 217.957031 139.488281 C 218.617188 139.292969 219.265625 139.089844 219.894531 138.882812 C 231.847656 134.921875 239.621094 128.523438 239.621094 121.976562 C 239.621094 115.695312 232.34375 109.625 221.085938 105.75 Z M 218.496094 134.65625 C 217.925781 134.84375 217.339844 135.027344 216.746094 135.203125 C 215.425781 131.027344 213.644531 126.585938 211.464844 121.996094 C 213.542969 117.515625 215.253906 113.132812 216.535156 108.984375 C 217.601562 109.292969 218.636719 109.617188 219.636719 109.960938 C 229.28125 113.28125 235.164062 118.191406 235.164062 121.976562 C 235.164062 126.003906 228.8125 131.234375 218.496094 134.65625 Z M 214.210938 143.136719 C 215.257812 148.40625 215.40625 153.171875 214.710938 156.898438 C 214.09375 160.242188 212.84375 162.476562 211.300781 163.367188 C 208.015625 165.269531 200.988281 162.796875 193.417969 156.277344 C 192.542969 155.527344 191.667969 154.730469 190.792969 153.886719 C 193.730469 150.675781 196.664062 146.941406 199.53125 142.792969 C 204.570312 142.347656 209.328125 141.613281 213.648438 140.617188 C 213.863281 141.476562 214.046875 142.316406 214.210938 143.136719 Z M 170.917969 163.039062 C 167.710938 164.171875 165.152344 164.207031 163.609375 163.3125 C 160.320312 161.417969 158.953125 154.09375 160.816406 144.277344 C 161.03125 143.152344 161.285156 141.996094 161.578125 140.816406 C 165.847656 141.761719 170.574219 142.441406 175.625 142.847656 C 178.511719 146.910156 181.53125 150.636719 184.574219 153.902344 C 183.910156 154.546875 183.246094 155.15625 182.585938 155.730469 C 178.542969 159.269531 174.492188 161.777344 170.917969 163.039062 Z M 155.882812 134.632812 C 150.800781 132.894531 146.601562 130.636719 143.722656 128.167969 C 141.136719 125.957031 139.832031 123.757812 139.832031 121.976562 C 139.832031 118.179688 145.492188 113.335938 154.929688 110.046875 C 156.074219 109.648438 157.273438 109.269531 158.519531 108.917969 C 159.824219 113.160156 161.535156 117.597656 163.597656 122.082031 C 161.507812 126.632812 159.773438 131.140625 158.453125 135.4375 C 157.566406 135.179688 156.707031 134.914062 155.882812 134.632812 Z M 160.921875 100.320312 C 158.964844 90.308594 160.265625 82.757812 163.539062 80.859375 C 167.027344 78.839844 174.738281 81.71875 182.863281 88.9375 C 183.382812 89.398438 183.90625 89.882812 184.429688 90.378906 C 181.402344 93.632812 178.410156 97.335938 175.550781 101.371094 C 170.648438 101.824219 165.953125 102.554688 161.640625 103.53125 C 161.367188 102.441406 161.128906 101.367188 160.921875 100.320312 Z M 205.886719 111.421875 C 204.855469 109.640625 203.796875 107.902344 202.71875 106.210938 C 206.042969 106.628906 209.226562 107.1875 212.222656 107.871094 C 211.324219 110.75 210.207031 113.761719 208.886719 116.847656 C 207.941406 115.050781 206.941406 113.242188 205.886719 111.421875 Z M 187.550781 93.5625 C 189.605469 95.789062 191.660156 98.273438 193.683594 100.96875 C 191.644531 100.871094 189.582031 100.824219 187.5 100.824219 C 185.441406 100.824219 183.390625 100.871094 181.363281 100.964844 C 183.386719 98.296875 185.464844 95.8125 187.550781 93.5625 Z M 169.09375 111.453125 C 168.066406 113.242188 167.082031 115.039062 166.152344 116.84375 C 164.855469 113.769531 163.746094 110.746094 162.839844 107.824219 C 165.816406 107.160156 168.988281 106.613281 172.292969 106.203125 C 171.195312 107.910156 170.128906 109.664062 169.09375 111.453125 Z M 172.386719 138.0625 C 168.972656 137.683594 165.753906 137.167969 162.777344 136.519531 C 163.699219 133.546875 164.832031 130.460938 166.15625 127.316406 C 167.089844 129.121094 168.078125 130.921875 169.113281 132.714844 C 170.167969 134.539062 171.261719 136.320312 172.386719 138.0625 Z M 187.671875 150.699219 C 185.5625 148.421875 183.457031 145.902344 181.398438 143.195312 C 183.394531 143.273438 185.429688 143.3125 187.5 143.3125 C 189.625 143.3125 191.726562 143.265625 193.792969 143.175781 C 191.761719 145.929688 189.710938 148.457031 187.671875 150.699219 Z M 208.925781 127.160156 C 210.320312 130.335938 211.496094 133.40625 212.429688 136.328125 C 209.40625 137.015625 206.140625 137.570312 202.703125 137.988281 C 203.789062 136.273438 204.855469 134.5 205.90625 132.679688 C 206.96875 130.839844 207.972656 128.996094 208.925781 127.160156 Z M 202.046875 130.457031 C 200.417969 133.285156 198.742188 135.980469 197.042969 138.523438 C 193.953125 138.742188 190.757812 138.859375 187.5 138.859375 C 184.253906 138.859375 181.097656 138.761719 178.0625 138.5625 C 176.292969 135.984375 174.585938 133.28125 172.96875 130.480469 C 171.351562 127.691406 169.867188 124.878906 168.519531 122.082031 C 169.867188 119.28125 171.347656 116.460938 172.953125 113.679688 C 174.5625 110.886719 176.257812 108.195312 178.007812 105.632812 C 181.105469 105.398438 184.289062 105.277344 187.5 105.277344 C 190.730469 105.277344 193.910156 105.398438 197.007812 105.636719 C 198.734375 108.179688 200.417969 110.863281 202.03125 113.65625 C 203.664062 116.480469 205.167969 119.277344 206.523438 122.019531 C 205.171875 124.808594 203.671875 127.636719 202.046875 130.457031 Z M 211.230469 80.726562 C 214.726562 82.738281 216.082031 90.859375 213.886719 101.503906 C 213.746094 102.183594 213.589844 102.875 213.417969 103.578125 C 209.09375 102.578125 204.398438 101.835938 199.484375 101.375 C 196.617188 97.296875 193.648438 93.585938 190.667969 90.378906 C 191.46875 89.605469 192.273438 88.871094 193.066406 88.179688 C 200.761719 81.480469 207.957031 78.835938 211.230469 80.726562 Z M 187.5 112.664062 C 192.640625 112.664062 196.808594 116.832031 196.808594 121.972656 C 196.808594 127.113281 192.640625 131.28125 187.5 131.28125 C 182.359375 131.28125 178.191406 127.113281 178.191406 121.972656 C 178.191406 116.832031 182.359375 112.664062 187.5 112.664062 Z M 187.5 112.664062 " fill-opacity="1" fill-rule="nonzero"/></g></svg>