<svg xmlns="http://www.w3.org/2000/svg" xmlns:xlink="http://www.w3.org/1999/xlink" width="500" zoomAndPan="magnify" viewBox="0 0 375 149.999998" height="200" preserveAspectRatio="xMidYMid meet" version="1.0"><defs><g/><clipPath id="d3ceac546b"><path d="M 7.5 6 L 97.089844 6 L 97.089844 145.878906 L 7.5 145.878906 Z M 7.5 6 " clip-rule="nonzero"/></clipPath><clipPath id="7fc7b2de59"><path d="M 25 4.121094 L 80 4.121094 L 80 104 L 25 104 Z M 25 4.121094 " clip-rule="nonzero"/></clipPath><clipPath id="a535ca2643"><path d="M 31.464844 30 L 73.140625 30 L 73.140625 68 L 31.464844 68 Z M 31.464844 30 " clip-rule="nonzero"/></clipPath></defs><g clip-path="url(#d3ceac546b)"><path fill="#ffffff" d="M 68.011719 140.835938 C 68.011719 142.390625 66.75 143.65625 65.191406 143.65625 L 39.535156 143.65625 C 37.984375 143.65625 36.71875 142.390625 36.71875 140.835938 L 36.71875 125.949219 L 68.011719 125.949219 Z M 79.847656 89.507812 C 90.421875 78.152344 97.226562 61.554688 97.226562 47.136719 C 97.226562 27.714844 84.863281 12.355469 67.59375 6.605469 C 76.855469 17.539062 82 31.636719 82 46.863281 C 82 64.925781 74.730469 85.480469 63.316406 101.074219 C 68.109375 99.269531 72.59375 96.351562 76.636719 92.675781 L 68.664062 120.226562 L 36.066406 120.226562 L 28.09375 92.675781 C 32.140625 96.351562 36.621094 99.269531 41.414062 101.074219 C 30 85.480469 22.730469 64.925781 22.730469 46.863281 C 22.730469 31.636719 27.878906 17.539062 37.140625 6.605469 C 19.867188 12.355469 7.5 27.714844 7.5 47.136719 C 7.5 61.554688 14.308594 78.152344 24.882812 89.507812 L 33.898438 120.667969 C 33.734375 120.871094 33.621094 121.125 33.621094 121.40625 L 33.621094 123.664062 C 33.621094 124.21875 34.003906 124.660156 34.515625 124.789062 L 34.515625 140.835938 C 34.515625 143.605469 36.765625 145.859375 39.535156 145.859375 L 65.191406 145.859375 C 67.960938 145.859375 70.214844 143.605469 70.214844 140.835938 L 70.214844 124.789062 C 70.726562 124.660156 71.113281 124.21875 71.113281 123.664062 L 71.113281 121.40625 C 71.113281 121.125 71 120.875 70.832031 120.671875 L 79.847656 89.507812 " fill-opacity="1" fill-rule="nonzero"/></g><path fill="#ffffff" d="M 52.363281 105.332031 C 51.472656 105.332031 50.585938 105.289062 49.703125 105.214844 C 48.773438 105.136719 47.832031 105 46.890625 104.839844 C 46.882812 104.851562 46.855469 104.867188 46.855469 104.882812 L 46.855469 111.34375 L 57.875 111.34375 L 57.875 104.882812 C 57.875 104.867188 57.847656 104.851562 57.835938 104.839844 C 56.894531 105 55.957031 105.136719 55.027344 105.214844 C 54.144531 105.289062 53.257812 105.332031 52.363281 105.332031 " fill-opacity="1" fill-rule="nonzero"/><g clip-path="url(#7fc7b2de59)"><path fill="#ffffff" d="M 45.453125 102.308594 C 46.910156 102.652344 48.386719 102.890625 49.886719 103.019531 C 50.710938 103.085938 51.53125 103.128906 52.363281 103.128906 C 53.195312 103.128906 54.019531 103.085938 54.84375 103.019531 C 56.34375 102.890625 57.820312 102.652344 59.277344 102.308594 C 71.574219 86.867188 79.53125 65.496094 79.53125 46.867188 C 79.53125 30.875 73.632812 16.195312 63.132812 5.371094 C 61.015625 4.894531 58.859375 4.511719 56.632812 4.320312 C 55.230469 4.199219 53.804688 4.132812 52.363281 4.132812 C 50.925781 4.132812 49.5 4.199219 48.097656 4.320312 C 45.875 4.511719 43.714844 4.890625 41.597656 5.371094 C 31.097656 16.195312 25.199219 30.875 25.199219 46.867188 C 25.199219 65.5 33.15625 86.871094 45.453125 102.308594 " fill-opacity="1" fill-rule="nonzero"/></g><g clip-path="url(#a535ca2643)"><path fill="#ff3131" d="M 65.804688 42.292969 C 65.371094 42.144531 64.925781 42 64.460938 41.867188 C 64.539062 41.558594 64.609375 41.253906 64.667969 40.953125 C 65.683594 36.019531 65.023438 32.042969 62.753906 30.734375 C 60.574219 29.480469 57.015625 30.789062 53.421875 33.917969 C 53.078125 34.21875 52.730469 34.535156 52.382812 34.871094 C 52.152344 34.648438 51.921875 34.433594 51.695312 34.230469 C 47.925781 30.886719 44.152344 29.476562 41.882812 30.789062 C 39.710938 32.046875 39.066406 35.785156 39.980469 40.460938 C 40.070312 40.914062 40.171875 41.375 40.289062 41.84375 C 39.753906 41.996094 39.238281 42.15625 38.746094 42.328125 C 34.328125 43.867188 31.507812 46.28125 31.507812 48.785156 C 31.507812 51.367188 34.535156 53.960938 39.136719 55.535156 C 39.5 55.660156 39.875 55.777344 40.265625 55.886719 C 40.136719 56.394531 40.027344 56.890625 39.9375 57.375 C 39.0625 61.96875 39.746094 65.617188 41.914062 66.867188 C 44.152344 68.160156 47.910156 66.832031 51.570312 63.632812 C 51.859375 63.382812 52.152344 63.113281 52.441406 62.832031 C 52.820312 63.195312 53.195312 63.539062 53.570312 63.859375 C 57.113281 66.910156 60.617188 68.144531 62.78125 66.890625 C 65.019531 65.59375 65.746094 61.675781 64.800781 56.90625 C 64.730469 56.542969 64.644531 56.171875 64.550781 55.792969 C 64.816406 55.714844 65.074219 55.632812 65.328125 55.550781 C 70.109375 53.964844 73.222656 51.402344 73.222656 48.785156 C 73.222656 46.273438 70.308594 43.84375 65.804688 42.292969 Z M 64.769531 53.859375 C 64.539062 53.933594 64.304688 54.007812 64.066406 54.078125 C 63.539062 52.40625 62.828125 50.628906 61.953125 48.792969 C 62.785156 47 63.46875 45.246094 63.984375 43.585938 C 64.410156 43.707031 64.824219 43.839844 65.222656 43.976562 C 69.082031 45.304688 71.4375 47.269531 71.4375 48.785156 C 71.4375 50.394531 68.894531 52.488281 64.769531 53.859375 Z M 63.054688 57.253906 C 63.472656 59.359375 63.53125 61.265625 63.253906 62.757812 C 63.007812 64.097656 62.507812 64.988281 61.886719 65.347656 C 60.574219 66.109375 57.761719 65.117188 54.730469 62.511719 C 54.382812 62.210938 54.03125 61.890625 53.683594 61.554688 C 54.859375 60.269531 56.03125 58.773438 57.179688 57.113281 C 59.195312 56.9375 61.101562 56.644531 62.828125 56.242188 C 62.914062 56.585938 62.988281 56.921875 63.054688 57.253906 Z M 45.730469 65.214844 C 44.445312 65.667969 43.421875 65.683594 42.804688 65.324219 C 41.488281 64.566406 40.941406 61.636719 41.6875 57.707031 C 41.773438 57.257812 41.875 56.796875 41.992188 56.324219 C 43.699219 56.703125 45.59375 56.972656 47.613281 57.136719 C 48.769531 58.761719 49.976562 60.253906 51.195312 61.558594 C 50.929688 61.816406 50.664062 62.0625 50.398438 62.292969 C 48.78125 63.707031 47.160156 64.710938 45.730469 65.214844 Z M 39.714844 53.847656 C 37.679688 53.152344 36 52.25 34.847656 51.261719 C 33.8125 50.378906 33.292969 49.496094 33.292969 48.785156 C 33.292969 47.265625 35.554688 45.328125 39.332031 44.011719 C 39.789062 43.851562 40.269531 43.699219 40.769531 43.558594 C 41.289062 45.257812 41.976562 47.03125 42.800781 48.828125 C 41.964844 50.648438 41.269531 52.453125 40.742188 54.171875 C 40.386719 54.066406 40.042969 53.960938 39.714844 53.847656 Z M 41.730469 40.117188 C 40.945312 36.113281 41.464844 33.089844 42.777344 32.332031 C 44.171875 31.523438 47.257812 32.675781 50.507812 35.5625 C 50.71875 35.75 50.925781 35.941406 51.136719 36.140625 C 49.925781 37.441406 48.726562 38.925781 47.582031 40.539062 C 45.621094 40.71875 43.742188 41.011719 42.015625 41.402344 C 41.90625 40.96875 41.8125 40.539062 41.730469 40.117188 Z M 59.722656 44.5625 C 59.308594 43.847656 58.886719 43.152344 58.453125 42.476562 C 59.785156 42.644531 61.058594 42.867188 62.257812 43.140625 C 61.898438 44.292969 61.449219 45.496094 60.921875 46.734375 C 60.542969 46.015625 60.144531 45.289062 59.722656 44.5625 Z M 52.382812 37.414062 C 53.207031 38.304688 54.03125 39.300781 54.839844 40.378906 C 54.023438 40.339844 53.199219 40.320312 52.363281 40.320312 C 51.539062 40.320312 50.722656 40.339844 49.910156 40.378906 C 50.71875 39.308594 51.550781 38.316406 52.382812 37.414062 Z M 45 44.574219 C 44.589844 45.289062 44.195312 46.007812 43.824219 46.730469 C 43.304688 45.5 42.859375 44.289062 42.496094 43.121094 C 43.6875 42.855469 44.957031 42.636719 46.277344 42.472656 C 45.839844 43.15625 45.414062 43.855469 45 44.574219 Z M 46.316406 55.222656 C 44.949219 55.070312 43.664062 54.863281 42.472656 54.605469 C 42.839844 53.414062 43.292969 52.179688 43.824219 50.921875 C 44.199219 51.644531 44.59375 52.363281 45.007812 53.082031 C 45.429688 53.8125 45.867188 54.523438 46.316406 55.222656 Z M 52.433594 60.277344 C 51.589844 59.367188 50.746094 58.359375 49.925781 57.273438 C 50.722656 57.304688 51.539062 57.320312 52.363281 57.320312 C 53.214844 57.320312 54.054688 57.300781 54.882812 57.265625 C 54.070312 58.371094 53.25 59.378906 52.433594 60.277344 Z M 60.9375 50.859375 C 61.496094 52.128906 61.96875 53.359375 62.339844 54.527344 C 61.132812 54.804688 59.824219 55.023438 58.449219 55.191406 C 58.882812 54.503906 59.308594 53.796875 59.730469 53.066406 C 60.15625 52.332031 60.558594 51.59375 60.9375 50.859375 Z M 58.183594 52.179688 C 57.535156 53.308594 56.863281 54.386719 56.183594 55.40625 C 54.949219 55.492188 53.667969 55.539062 52.363281 55.539062 C 51.066406 55.539062 49.804688 55.5 48.589844 55.421875 C 47.878906 54.390625 47.195312 53.308594 46.550781 52.1875 C 45.902344 51.070312 45.308594 49.945312 44.769531 48.828125 C 45.308594 47.707031 45.902344 46.578125 46.542969 45.464844 C 47.1875 44.347656 47.867188 43.269531 48.566406 42.246094 C 49.808594 42.148438 51.078125 42.101562 52.363281 42.101562 C 53.65625 42.101562 54.929688 42.152344 56.167969 42.246094 C 56.859375 43.261719 57.535156 44.335938 58.179688 45.453125 C 58.832031 46.585938 59.433594 47.703125 59.976562 48.800781 C 59.4375 49.917969 58.835938 51.050781 58.183594 52.179688 Z M 61.859375 32.277344 C 63.257812 33.082031 63.800781 36.332031 62.921875 40.59375 C 62.867188 40.863281 62.804688 41.140625 62.734375 41.421875 C 61.003906 41.023438 59.125 40.726562 57.160156 40.539062 C 56.011719 38.910156 54.824219 37.425781 53.632812 36.140625 C 53.953125 35.832031 54.273438 35.539062 54.59375 35.261719 C 57.671875 32.582031 60.550781 31.523438 61.859375 32.277344 Z M 52.363281 45.058594 C 54.421875 45.058594 56.089844 46.726562 56.089844 48.785156 C 56.089844 50.839844 54.421875 52.507812 52.363281 52.507812 C 50.308594 52.507812 48.640625 50.839844 48.640625 48.785156 C 48.640625 46.726562 50.308594 45.058594 52.363281 45.058594 Z M 52.363281 45.058594 " fill-opacity="1" fill-rule="nonzero"/></g><g fill="#000000" fill-opacity="1"><g transform="translate(125.391061, 99.004603)"><g><path d="M 23.09375 -25.65625 L 41.234375 -25.65625 L 41.234375 -1.96875 C 38.835938 -1.175781 36.34375 -0.546875 33.75 -0.078125 C 31.164062 0.390625 28.238281 0.625 24.96875 0.625 C 20.425781 0.625 16.570312 -0.269531 13.40625 -2.0625 C 10.238281 -3.851562 7.832031 -6.5 6.1875 -10 C 4.539062 -13.5 3.71875 -17.800781 3.71875 -22.90625 C 3.71875 -27.695312 4.640625 -31.84375 6.484375 -35.34375 C 8.328125 -38.851562 11.023438 -41.566406 14.578125 -43.484375 C 18.128906 -45.398438 22.46875 -46.359375 27.59375 -46.359375 C 30.007812 -46.359375 32.394531 -46.097656 34.75 -45.578125 C 37.113281 -45.054688 39.253906 -44.378906 41.171875 -43.546875 L 37.953125 -35.796875 C 36.554688 -36.503906 34.957031 -37.097656 33.15625 -37.578125 C 31.363281 -38.054688 29.488281 -38.296875 27.53125 -38.296875 C 24.71875 -38.296875 22.273438 -37.648438 20.203125 -36.359375 C 18.128906 -35.066406 16.523438 -33.253906 15.390625 -30.921875 C 14.253906 -28.597656 13.6875 -25.863281 13.6875 -22.71875 C 13.6875 -19.738281 14.09375 -17.097656 14.90625 -14.796875 C 15.71875 -12.492188 17 -10.691406 18.75 -9.390625 C 20.5 -8.085938 22.78125 -7.4375 25.59375 -7.4375 C 26.96875 -7.4375 28.128906 -7.503906 29.078125 -7.640625 C 30.023438 -7.773438 30.914062 -7.914062 31.75 -8.0625 L 31.75 -17.59375 L 23.09375 -17.59375 Z M 23.09375 -25.65625 "/></g></g></g><g fill="#000000" fill-opacity="1"><g transform="translate(171.739183, 99.004603)"><g><path d="M 14.53125 0 L 5 0 L 5 -48.640625 L 14.53125 -48.640625 Z M 14.53125 0 "/></g></g></g><g fill="#000000" fill-opacity="1"><g transform="translate(191.272281, 99.004603)"><g><path d="M 36.765625 -17.53125 C 36.765625 -14.613281 36.375 -12.03125 35.59375 -9.78125 C 34.8125 -7.53125 33.671875 -5.628906 32.171875 -4.078125 C 30.679688 -2.523438 28.890625 -1.351562 26.796875 -0.5625 C 24.703125 0.226562 22.34375 0.625 19.71875 0.625 C 17.257812 0.625 15.003906 0.226562 12.953125 -0.5625 C 10.898438 -1.351562 9.117188 -2.523438 7.609375 -4.078125 C 6.097656 -5.628906 4.929688 -7.53125 4.109375 -9.78125 C 3.285156 -12.03125 2.875 -14.613281 2.875 -17.53125 C 2.875 -21.40625 3.5625 -24.6875 4.9375 -27.375 C 6.3125 -30.0625 8.269531 -32.101562 10.8125 -33.5 C 13.351562 -34.90625 16.382812 -35.609375 19.90625 -35.609375 C 23.175781 -35.609375 26.078125 -34.90625 28.609375 -33.5 C 31.148438 -32.101562 33.144531 -30.0625 34.59375 -27.375 C 36.039062 -24.6875 36.765625 -21.40625 36.765625 -17.53125 Z M 12.59375 -17.53125 C 12.59375 -15.238281 12.84375 -13.3125 13.34375 -11.75 C 13.84375 -10.1875 14.625 -9.007812 15.6875 -8.21875 C 16.75 -7.425781 18.132812 -7.03125 19.84375 -7.03125 C 21.53125 -7.03125 22.898438 -7.425781 23.953125 -8.21875 C 25.003906 -9.007812 25.773438 -10.1875 26.265625 -11.75 C 26.753906 -13.3125 27 -15.238281 27 -17.53125 C 27 -19.84375 26.753906 -21.765625 26.265625 -23.296875 C 25.773438 -24.828125 25 -25.976562 23.9375 -26.75 C 22.875 -27.519531 21.488281 -27.90625 19.78125 -27.90625 C 17.257812 -27.90625 15.429688 -27.039062 14.296875 -25.3125 C 13.160156 -23.582031 12.59375 -20.988281 12.59375 -17.53125 Z M 12.59375 -17.53125 "/></g></g></g><g fill="#000000" fill-opacity="1"><g transform="translate(230.901012, 99.004603)"><g><path d="M 14.53125 -48.640625 L 14.53125 -37.328125 C 14.53125 -36.015625 14.492188 -34.707031 14.421875 -33.40625 C 14.347656 -32.113281 14.257812 -31.113281 14.15625 -30.40625 L 14.53125 -30.40625 C 15.445312 -31.851562 16.695312 -33.082031 18.28125 -34.09375 C 19.863281 -35.101562 21.914062 -35.609375 24.4375 -35.609375 C 28.351562 -35.609375 31.53125 -34.070312 33.96875 -31 C 36.414062 -27.9375 37.640625 -23.445312 37.640625 -17.53125 C 37.640625 -13.550781 37.078125 -10.210938 35.953125 -7.515625 C 34.828125 -4.816406 33.25 -2.785156 31.21875 -1.421875 C 29.195312 -0.0546875 26.851562 0.625 24.1875 0.625 C 21.625 0.625 19.601562 0.164062 18.125 -0.75 C 16.644531 -1.664062 15.445312 -2.695312 14.53125 -3.84375 L 13.875 -3.84375 L 12.28125 0 L 5 0 L 5 -48.640625 Z M 21.375 -27.96875 C 19.707031 -27.96875 18.382812 -27.625 17.40625 -26.9375 C 16.425781 -26.25 15.710938 -25.21875 15.265625 -23.84375 C 14.816406 -22.46875 14.570312 -20.726562 14.53125 -18.625 L 14.53125 -17.59375 C 14.53125 -14.195312 15.03125 -11.597656 16.03125 -9.796875 C 17.03125 -7.992188 18.851562 -7.09375 21.5 -7.09375 C 23.457031 -7.09375 25.015625 -8 26.171875 -9.8125 C 27.328125 -11.625 27.90625 -14.238281 27.90625 -17.65625 C 27.90625 -21.070312 27.320312 -23.644531 26.15625 -25.375 C 24.988281 -27.101562 23.394531 -27.96875 21.375 -27.96875 Z M 21.375 -27.96875 "/></g></g></g><g fill="#000000" fill-opacity="1"><g transform="translate(271.404825, 99.004603)"><g><path d="M 36.765625 -17.53125 C 36.765625 -14.613281 36.375 -12.03125 35.59375 -9.78125 C 34.8125 -7.53125 33.671875 -5.628906 32.171875 -4.078125 C 30.679688 -2.523438 28.890625 -1.351562 26.796875 -0.5625 C 24.703125 0.226562 22.34375 0.625 19.71875 0.625 C 17.257812 0.625 15.003906 0.226562 12.953125 -0.5625 C 10.898438 -1.351562 9.117188 -2.523438 7.609375 -4.078125 C 6.097656 -5.628906 4.929688 -7.53125 4.109375 -9.78125 C 3.285156 -12.03125 2.875 -14.613281 2.875 -17.53125 C 2.875 -21.40625 3.5625 -24.6875 4.9375 -27.375 C 6.3125 -30.0625 8.269531 -32.101562 10.8125 -33.5 C 13.351562 -34.90625 16.382812 -35.609375 19.90625 -35.609375 C 23.175781 -35.609375 26.078125 -34.90625 28.609375 -33.5 C 31.148438 -32.101562 33.144531 -30.0625 34.59375 -27.375 C 36.039062 -24.6875 36.765625 -21.40625 36.765625 -17.53125 Z M 12.59375 -17.53125 C 12.59375 -15.238281 12.84375 -13.3125 13.34375 -11.75 C 13.84375 -10.1875 14.625 -9.007812 15.6875 -8.21875 C 16.75 -7.425781 18.132812 -7.03125 19.84375 -7.03125 C 21.53125 -7.03125 22.898438 -7.425781 23.953125 -8.21875 C 25.003906 -9.007812 25.773438 -10.1875 26.265625 -11.75 C 26.753906 -13.3125 27 -15.238281 27 -17.53125 C 27 -19.84375 26.753906 -21.765625 26.265625 -23.296875 C 25.773438 -24.828125 25 -25.976562 23.9375 -26.75 C 22.875 -27.519531 21.488281 -27.90625 19.78125 -27.90625 C 17.257812 -27.90625 15.429688 -27.039062 14.296875 -25.3125 C 13.160156 -23.582031 12.59375 -20.988281 12.59375 -17.53125 Z M 12.59375 -17.53125 "/></g></g></g><g fill="#000000" fill-opacity="1"><g transform="translate(311.033556, 99.004603)"><g><path d="M 0.96875 13.4375 C -0.28125 13.4375 -1.378906 13.367188 -2.328125 13.234375 C -3.273438 13.097656 -4.082031 12.9375 -4.75 12.75 L -4.75 4.6875 C -4.082031 4.832031 -3.367188 4.972656 -2.609375 5.109375 C -1.847656 5.242188 -1.039062 5.3125 -0.1875 5.3125 C 0.9375 5.3125 1.945312 5.097656 2.84375 4.671875 C 3.738281 4.242188 4.445312 3.4375 4.96875 2.25 C 5.488281 1.0625 5.75 -0.644531 5.75 -2.875 L 5.75 -45.703125 L 15.4375 -45.703125 L 15.4375 -2.9375 C 15.4375 0.976562 14.828125 4.140625 13.609375 6.546875 C 12.390625 8.953125 10.691406 10.703125 8.515625 11.796875 C 6.335938 12.890625 3.820312 13.4375 0.96875 13.4375 Z M 0.96875 13.4375 "/></g></g></g><g fill="#000000" fill-opacity="1"><g transform="translate(332.223051, 99.004603)"><g><path d="M 32.734375 -12.6875 C 32.734375 -9.976562 32.070312 -7.625 30.75 -5.625 C 29.4375 -3.625 27.523438 -2.082031 25.015625 -1 C 22.503906 0.0820312 19.457031 0.625 15.875 0.625 C 14.289062 0.625 12.742188 0.519531 11.234375 0.3125 C 9.722656 0.101562 8.273438 -0.203125 6.890625 -0.609375 C 5.503906 -1.015625 4.1875 -1.519531 2.9375 -2.125 L 2.9375 -11.125 C 5.101562 -10.164062 7.351562 -9.300781 9.6875 -8.53125 C 12.019531 -7.757812 14.332031 -7.375 16.625 -7.375 C 18.207031 -7.375 19.484375 -7.582031 20.453125 -8 C 21.421875 -8.414062 22.125 -8.988281 22.5625 -9.71875 C 23 -10.445312 23.21875 -11.28125 23.21875 -12.21875 C 23.21875 -13.363281 22.832031 -14.34375 22.0625 -15.15625 C 21.289062 -15.96875 20.234375 -16.726562 18.890625 -17.4375 C 17.546875 -18.144531 16.03125 -18.90625 14.34375 -19.71875 C 13.28125 -20.21875 12.125 -20.828125 10.875 -21.546875 C 9.625 -22.265625 8.4375 -23.144531 7.3125 -24.1875 C 6.1875 -25.226562 5.265625 -26.492188 4.546875 -27.984375 C 3.828125 -29.472656 3.46875 -31.265625 3.46875 -33.359375 C 3.46875 -36.085938 4.09375 -38.421875 5.34375 -40.359375 C 6.59375 -42.296875 8.378906 -43.78125 10.703125 -44.8125 C 13.023438 -45.84375 15.769531 -46.359375 18.9375 -46.359375 C 21.3125 -46.359375 23.578125 -46.082031 25.734375 -45.53125 C 27.890625 -44.976562 30.148438 -44.179688 32.515625 -43.140625 L 29.375 -35.609375 C 27.269531 -36.460938 25.382812 -37.125 23.71875 -37.59375 C 22.050781 -38.0625 20.351562 -38.296875 18.625 -38.296875 C 17.414062 -38.296875 16.382812 -38.101562 15.53125 -37.71875 C 14.675781 -37.332031 14.03125 -36.789062 13.59375 -36.09375 C 13.15625 -35.394531 12.9375 -34.585938 12.9375 -33.671875 C 12.9375 -32.585938 13.253906 -31.671875 13.890625 -30.921875 C 14.523438 -30.179688 15.484375 -29.46875 16.765625 -28.78125 C 18.046875 -28.09375 19.644531 -27.289062 21.5625 -26.375 C 23.894531 -25.269531 25.890625 -24.117188 27.546875 -22.921875 C 29.203125 -21.722656 30.476562 -20.316406 31.375 -18.703125 C 32.28125 -17.085938 32.734375 -15.082031 32.734375 -12.6875 Z M 32.734375 -12.6875 "/></g></g></g></svg>