<svg xmlns="http://www.w3.org/2000/svg" xmlns:xlink="http://www.w3.org/1999/xlink" width="500" zoomAndPan="magnify" viewBox="0 0 375 374.999991" height="500" preserveAspectRatio="xMidYMid meet" version="1.0"><defs><clipPath id="bf601d003c"><path d="M 68.8125 6 L 305.8125 6 L 305.8125 375 L 68.8125 375 Z M 68.8125 6 " clip-rule="nonzero"/></clipPath><clipPath id="45ad60a0b3"><path d="M 132.210938 69 L 242.460938 69 L 242.460938 168 L 132.210938 168 Z M 132.210938 69 " clip-rule="nonzero"/></clipPath></defs><g clip-path="url(#bf601d003c)"><path fill="#ffffff" d="M 228.890625 361.664062 C 228.890625 365.777344 225.546875 369.121094 221.433594 369.121094 L 153.558594 369.121094 C 149.453125 369.121094 146.109375 365.777344 146.109375 361.664062 L 146.109375 322.277344 L 228.890625 322.277344 Z M 260.203125 225.875 C 288.171875 195.835938 306.171875 151.933594 306.171875 113.789062 C 306.171875 62.410156 273.472656 21.777344 227.785156 6.574219 C 252.28125 35.496094 265.898438 72.785156 265.898438 113.074219 C 265.898438 160.847656 246.664062 215.21875 216.46875 256.476562 C 229.152344 251.707031 241.015625 243.980469 251.707031 234.253906 L 230.617188 307.144531 L 144.382812 307.144531 L 123.296875 234.261719 C 133.992188 243.984375 145.851562 251.707031 158.53125 256.476562 C 128.335938 215.222656 109.105469 160.851562 109.105469 113.074219 C 109.105469 72.785156 122.722656 35.488281 147.222656 6.574219 C 101.527344 21.777344 68.816406 62.410156 68.816406 113.789062 C 68.816406 151.9375 86.828125 195.84375 114.800781 225.882812 L 138.652344 308.316406 C 138.210938 308.847656 137.910156 309.515625 137.910156 310.265625 L 137.910156 316.238281 C 137.910156 317.699219 138.929688 318.871094 140.28125 319.210938 L 140.28125 361.664062 C 140.28125 368.992188 146.234375 374.953125 153.558594 374.953125 L 221.433594 374.953125 C 228.757812 374.953125 234.722656 368.992188 234.722656 361.664062 L 234.722656 319.210938 C 236.074219 318.867188 237.09375 317.699219 237.09375 316.238281 L 237.09375 310.265625 C 237.09375 309.515625 236.792969 308.855469 236.351562 308.320312 L 260.203125 225.875 " fill-opacity="1" fill-rule="nonzero"/></g><path fill="#ffffff" d="M 187.496094 267.738281 C 185.136719 267.738281 182.796875 267.625 180.460938 267.429688 C 177.996094 267.21875 175.507812 266.867188 173.015625 266.433594 C 172.992188 266.472656 172.917969 266.511719 172.917969 266.554688 L 172.917969 283.644531 L 202.074219 283.644531 L 202.074219 266.554688 C 202.074219 266.511719 202 266.472656 201.976562 266.433594 C 199.488281 266.867188 197.003906 267.21875 194.542969 267.429688 C 192.207031 267.625 189.855469 267.738281 187.496094 267.738281 " fill-opacity="1" fill-rule="nonzero"/><path fill="#ffffff" d="M 169.210938 259.742188 C 173.066406 260.648438 176.980469 261.285156 180.945312 261.617188 C 183.121094 261.800781 185.296875 261.90625 187.496094 261.90625 C 189.691406 261.90625 191.878906 261.800781 194.054688 261.617188 C 198.019531 261.285156 201.933594 260.648438 205.785156 259.742188 C 238.316406 218.894531 259.367188 162.355469 259.367188 113.074219 C 259.367188 70.777344 243.765625 31.941406 215.984375 3.304688 C 210.382812 2.042969 204.675781 1.027344 198.792969 0.523438 C 195.082031 0.203125 191.308594 0.0273438 187.496094 0.0273438 C 183.691406 0.0273438 179.921875 0.203125 176.210938 0.523438 C 170.328125 1.027344 164.617188 2.035156 159.015625 3.304688 C 131.238281 31.941406 115.632812 70.777344 115.632812 113.074219 C 115.632812 162.367188 136.6875 218.898438 169.210938 259.742188 " fill-opacity="1" fill-rule="nonzero"/><g clip-path="url(#45ad60a0b3)"><path fill="#ff3131" d="M 223.050781 100.972656 C 221.910156 100.578125 220.722656 100.207031 219.5 99.855469 C 219.703125 99.035156 219.886719 98.226562 220.050781 97.429688 C 222.734375 84.378906 220.980469 73.863281 214.976562 70.402344 C 209.21875 67.082031 199.804688 70.542969 190.296875 78.816406 C 189.382812 79.613281 188.464844 80.457031 187.550781 81.339844 C 186.9375 80.753906 186.332031 80.191406 185.722656 79.652344 C 175.757812 70.804688 165.769531 67.074219 159.769531 70.546875 C 154.019531 73.875 152.316406 83.761719 154.738281 96.128906 C 154.972656 97.324219 155.246094 98.546875 155.554688 99.785156 C 154.140625 100.1875 152.773438 100.613281 151.46875 101.070312 C 139.785156 105.144531 132.324219 111.527344 132.324219 118.148438 C 132.324219 124.984375 140.335938 131.847656 152.503906 136.007812 C 153.464844 136.335938 154.460938 136.644531 155.488281 136.9375 C 155.152344 138.277344 154.863281 139.59375 154.621094 140.878906 C 152.3125 153.03125 154.113281 162.683594 159.851562 165.988281 C 165.773438 169.40625 175.71875 165.894531 185.398438 157.433594 C 186.167969 156.765625 186.933594 156.054688 187.703125 155.3125 C 188.703125 156.269531 189.695312 157.179688 190.683594 158.03125 C 200.0625 166.101562 209.328125 169.359375 215.054688 166.046875 C 220.972656 162.617188 222.898438 152.246094 220.398438 139.636719 C 220.210938 138.671875 219.984375 137.6875 219.742188 136.6875 C 220.4375 136.480469 221.125 136.265625 221.792969 136.046875 C 234.441406 131.851562 242.671875 125.078125 242.671875 118.148438 C 242.671875 111.503906 234.96875 105.074219 223.050781 100.972656 Z M 220.308594 131.570312 C 219.707031 131.769531 219.085938 131.964844 218.457031 132.148438 C 217.058594 127.730469 215.175781 123.027344 212.867188 118.171875 C 215.066406 113.429688 216.878906 108.789062 218.234375 104.394531 C 219.367188 104.722656 220.460938 105.066406 221.515625 105.429688 C 231.726562 108.945312 237.957031 114.144531 237.957031 118.148438 C 237.957031 122.410156 231.230469 127.949219 220.308594 131.570312 Z M 215.773438 140.550781 C 216.882812 146.128906 217.039062 151.171875 216.304688 155.113281 C 215.648438 158.65625 214.328125 161.019531 212.691406 161.964844 C 209.214844 163.976562 201.777344 161.359375 193.761719 154.460938 C 192.839844 153.667969 191.914062 152.820312 190.984375 151.929688 C 194.09375 148.527344 197.203125 144.574219 200.234375 140.183594 C 205.566406 139.714844 210.605469 138.9375 215.179688 137.882812 C 215.402344 138.789062 215.601562 139.679688 215.773438 140.550781 Z M 169.945312 161.613281 C 166.550781 162.816406 163.84375 162.851562 162.207031 161.90625 C 158.726562 159.898438 157.28125 152.148438 159.253906 141.757812 C 159.480469 140.566406 159.75 139.34375 160.058594 138.09375 C 164.578125 139.09375 169.582031 139.8125 174.929688 140.242188 C 177.984375 144.539062 181.179688 148.488281 184.402344 151.945312 C 183.699219 152.628906 182.996094 153.273438 182.296875 153.882812 C 178.019531 157.628906 173.726562 160.28125 169.945312 161.613281 Z M 154.03125 131.546875 C 148.648438 129.703125 144.207031 127.316406 141.160156 124.703125 C 138.421875 122.363281 137.042969 120.035156 137.042969 118.148438 C 137.042969 114.132812 143.03125 109.003906 153.023438 105.519531 C 154.234375 105.097656 155.503906 104.699219 156.820312 104.324219 C 158.203125 108.816406 160.011719 113.515625 162.199219 118.261719 C 159.984375 123.078125 158.148438 127.851562 156.753906 132.398438 C 155.816406 132.128906 154.90625 131.84375 154.03125 131.546875 Z M 159.367188 95.226562 C 157.292969 84.625 158.667969 76.632812 162.136719 74.625 C 165.828125 72.488281 173.988281 75.535156 182.589844 83.175781 C 183.144531 83.664062 183.695312 84.175781 184.25 84.703125 C 181.042969 88.144531 177.875 92.066406 174.847656 96.335938 C 169.660156 96.816406 164.691406 97.589844 160.125 98.625 C 159.835938 97.46875 159.582031 96.335938 159.367188 95.226562 Z M 206.960938 106.976562 C 205.871094 105.09375 204.75 103.25 203.605469 101.460938 C 207.128906 101.90625 210.5 102.496094 213.667969 103.21875 C 212.71875 106.265625 211.535156 109.453125 210.136719 112.722656 C 209.136719 110.820312 208.078125 108.902344 206.960938 106.976562 Z M 187.550781 88.074219 C 189.726562 90.429688 191.90625 93.058594 194.046875 95.910156 C 191.886719 95.808594 189.703125 95.757812 187.5 95.757812 C 185.316406 95.757812 183.148438 95.808594 181.003906 95.910156 C 183.144531 93.082031 185.34375 90.457031 187.550781 88.074219 Z M 168.015625 107.011719 C 166.925781 108.902344 165.886719 110.808594 164.902344 112.71875 C 163.53125 109.460938 162.355469 106.261719 161.394531 103.167969 C 164.542969 102.464844 167.902344 101.886719 171.398438 101.453125 C 170.242188 103.257812 169.109375 105.113281 168.015625 107.011719 Z M 171.5 135.179688 C 167.886719 134.777344 164.476562 134.230469 161.332031 133.546875 C 162.304688 130.398438 163.503906 127.132812 164.90625 123.804688 C 165.894531 125.714844 166.9375 127.617188 168.035156 129.515625 C 169.152344 131.445312 170.3125 133.335938 171.5 135.179688 Z M 187.679688 148.554688 C 185.449219 146.144531 183.21875 143.476562 181.042969 140.609375 C 183.15625 140.691406 185.308594 140.734375 187.5 140.734375 C 189.75 140.734375 191.972656 140.683594 194.160156 140.589844 C 192.011719 143.507812 189.839844 146.179688 187.679688 148.554688 Z M 210.179688 123.636719 C 211.65625 126.996094 212.898438 130.246094 213.886719 133.34375 C 210.6875 134.070312 207.230469 134.65625 203.59375 135.097656 C 204.742188 133.28125 205.871094 131.40625 206.980469 129.480469 C 208.105469 127.53125 209.171875 125.578125 210.179688 123.636719 Z M 202.894531 127.128906 C 201.171875 130.117188 199.398438 132.972656 197.601562 135.664062 C 194.332031 135.898438 190.949219 136.019531 187.5 136.019531 C 184.0625 136.019531 180.722656 135.914062 177.507812 135.703125 C 175.636719 132.976562 173.828125 130.113281 172.113281 127.152344 L 172.117188 127.152344 C 170.40625 124.199219 168.832031 121.222656 167.40625 118.261719 C 168.832031 115.296875 170.402344 112.3125 172.101562 109.367188 C 173.804688 106.410156 175.597656 103.5625 177.453125 100.847656 C 180.730469 100.601562 184.097656 100.46875 187.5 100.46875 C 190.917969 100.46875 194.285156 100.601562 197.5625 100.851562 C 199.390625 103.542969 201.171875 106.386719 202.882812 109.339844 C 204.609375 112.328125 206.203125 115.289062 207.636719 118.195312 C 206.207031 121.148438 204.621094 124.140625 202.894531 127.128906 Z M 212.621094 74.484375 C 216.316406 76.617188 217.753906 85.210938 215.429688 96.480469 C 215.285156 97.199219 215.117188 97.929688 214.933594 98.671875 C 210.355469 97.617188 205.386719 96.828125 200.183594 96.339844 C 197.148438 92.023438 194.007812 88.097656 190.851562 84.699219 C 191.703125 83.882812 192.550781 83.105469 193.390625 82.371094 C 201.539062 75.285156 209.15625 72.484375 212.621094 74.484375 Z M 187.5 108.292969 C 192.9375 108.292969 197.351562 112.703125 197.351562 118.148438 C 197.351562 123.585938 192.9375 128 187.5 128 C 182.058594 128 177.644531 123.585938 177.644531 118.148438 C 177.644531 112.703125 182.058594 108.292969 187.5 108.292969 Z M 187.5 108.292969 " fill-opacity="1" fill-rule="nonzero"/></g></svg>