<svg xmlns="http://www.w3.org/2000/svg" xmlns:xlink="http://www.w3.org/1999/xlink" width="500" zoomAndPan="magnify" viewBox="0 0 375 374.999991" height="500" preserveAspectRatio="xMidYMid meet" version="1.0"><defs><clipPath id="faa9202819"><path d="M 80.492188 24 L 294.320312 24 L 294.320312 356.296875 L 80.492188 356.296875 Z M 80.492188 24 " clip-rule="nonzero"/></clipPath><clipPath id="d487d2f6a9"><path d="M 122 18.449219 L 253 18.449219 L 253 255 L 122 255 Z M 122 18.449219 " clip-rule="nonzero"/></clipPath><clipPath id="9b594d60ad"><path d="M 137.648438 80 L 237.082031 80 L 237.082031 170 L 137.648438 170 Z M 137.648438 80 " clip-rule="nonzero"/></clipPath></defs><rect x="-37.5" width="450" fill="#ffffff" y="-37.499999" height="449.999989" fill-opacity="1"/><rect x="-37.5" width="450" fill="#ff3131" y="-37.499999" height="449.999989" fill-opacity="1"/><g clip-path="url(#faa9202819)"><path fill="#ffffff" d="M 224.820312 344.527344 C 224.820312 348.238281 221.808594 351.253906 218.097656 351.253906 L 156.902344 351.253906 C 153.199219 351.253906 150.183594 348.238281 150.183594 344.527344 L 150.183594 309.015625 L 224.820312 309.015625 Z M 253.054688 222.097656 C 278.269531 195.011719 294.5 155.429688 294.5 121.039062 C 294.5 74.714844 265.015625 38.078125 223.824219 24.371094 C 245.910156 50.449219 258.1875 84.070312 258.1875 120.394531 C 258.1875 163.46875 240.84375 212.492188 213.621094 249.6875 C 225.054688 245.386719 235.753906 238.421875 245.390625 229.65625 L 226.378906 295.375 L 148.628906 295.375 L 129.613281 229.660156 C 139.257812 238.425781 149.949219 245.386719 161.382812 249.6875 C 134.160156 212.496094 116.820312 163.472656 116.820312 120.394531 C 116.820312 84.070312 129.097656 50.441406 151.1875 24.371094 C 109.988281 38.078125 80.496094 74.714844 80.496094 121.039062 C 80.496094 155.433594 96.734375 195.019531 121.957031 222.105469 L 143.457031 296.429688 C 143.0625 296.910156 142.792969 297.511719 142.792969 298.1875 L 142.792969 303.574219 C 142.792969 304.890625 143.710938 305.945312 144.925781 306.253906 L 144.925781 344.527344 C 144.925781 351.136719 150.296875 356.511719 156.902344 356.511719 L 218.097656 356.511719 C 224.703125 356.511719 230.078125 351.136719 230.078125 344.527344 L 230.078125 306.253906 C 231.296875 305.941406 232.214844 304.886719 232.214844 303.574219 L 232.214844 298.1875 C 232.214844 297.511719 231.945312 296.917969 231.550781 296.433594 L 253.054688 222.097656 " fill-opacity="1" fill-rule="nonzero"/></g><path fill="#ffffff" d="M 187.5 259.84375 C 185.371094 259.84375 183.261719 259.738281 181.15625 259.566406 C 178.933594 259.375 176.691406 259.058594 174.441406 258.667969 C 174.421875 258.703125 174.355469 258.738281 174.355469 258.773438 L 174.355469 274.1875 L 200.640625 274.1875 L 200.640625 258.773438 C 200.640625 258.738281 200.574219 258.703125 200.554688 258.667969 C 198.308594 259.058594 196.070312 259.375 193.851562 259.566406 C 191.746094 259.738281 189.625 259.84375 187.5 259.84375 " fill-opacity="1" fill-rule="nonzero"/><g clip-path="url(#d487d2f6a9)"><path fill="#ffffff" d="M 171.011719 252.632812 C 174.488281 253.449219 178.015625 254.027344 181.59375 254.324219 C 183.554688 254.488281 185.515625 254.585938 187.496094 254.585938 C 189.480469 254.585938 191.449219 254.488281 193.414062 254.324219 C 196.988281 254.027344 200.515625 253.449219 203.988281 252.632812 C 233.320312 215.804688 252.300781 164.828125 252.300781 120.394531 C 252.300781 82.257812 238.230469 47.242188 213.183594 21.425781 C 208.136719 20.285156 202.988281 19.371094 197.683594 18.917969 C 194.335938 18.628906 190.9375 18.46875 187.496094 18.46875 C 184.066406 18.46875 180.671875 18.628906 177.324219 18.917969 C 172.019531 19.371094 166.871094 20.28125 161.820312 21.425781 C 136.773438 47.242188 122.703125 82.257812 122.703125 120.394531 C 122.703125 164.839844 141.6875 215.808594 171.011719 252.632812 " fill-opacity="1" fill-rule="nonzero"/></g><g clip-path="url(#9b594d60ad)"><path fill="#ff3131" d="M 219.554688 109.488281 C 218.523438 109.132812 217.457031 108.796875 216.351562 108.480469 C 216.535156 107.742188 216.703125 107.011719 216.847656 106.292969 C 219.269531 94.527344 217.6875 85.046875 212.273438 81.925781 C 207.082031 78.929688 198.59375 82.050781 190.019531 89.511719 C 189.195312 90.230469 188.371094 90.988281 187.546875 91.785156 C 186.992188 91.257812 186.445312 90.75 185.898438 90.261719 C 176.914062 82.285156 167.90625 78.921875 162.5 82.054688 C 157.3125 85.054688 155.777344 93.96875 157.960938 105.121094 C 158.171875 106.199219 158.417969 107.300781 158.695312 108.417969 C 157.421875 108.78125 156.191406 109.164062 155.011719 109.574219 C 144.480469 113.246094 137.753906 119.003906 137.753906 124.972656 C 137.753906 131.136719 144.972656 137.324219 155.945312 141.074219 C 156.8125 141.371094 157.710938 141.652344 158.636719 141.914062 C 158.335938 143.125 158.074219 144.308594 157.855469 145.46875 C 155.773438 156.425781 157.398438 165.128906 162.570312 168.109375 C 167.910156 171.191406 176.878906 168.023438 185.605469 160.394531 C 186.296875 159.792969 186.988281 159.152344 187.679688 158.484375 C 188.582031 159.347656 189.480469 160.167969 190.371094 160.9375 C 198.828125 168.210938 207.179688 171.148438 212.34375 168.160156 C 217.679688 165.070312 219.417969 155.71875 217.164062 144.347656 C 216.992188 143.476562 216.789062 142.589844 216.570312 141.691406 C 217.199219 141.503906 217.816406 141.308594 218.417969 141.109375 C 229.824219 137.328125 237.246094 131.222656 237.246094 124.972656 C 237.246094 118.980469 230.300781 113.1875 219.554688 109.488281 Z M 217.082031 137.078125 C 216.539062 137.253906 215.976562 137.429688 215.410156 137.597656 C 214.152344 133.613281 212.453125 129.375 210.371094 124.992188 C 212.355469 120.71875 213.988281 116.535156 215.210938 112.574219 C 216.230469 112.867188 217.21875 113.179688 218.171875 113.507812 C 227.378906 116.675781 232.992188 121.363281 232.992188 124.972656 C 232.992188 128.816406 226.929688 133.8125 217.082031 137.078125 Z M 212.992188 145.171875 C 213.992188 150.203125 214.132812 154.75 213.472656 158.304688 C 212.882812 161.5 211.6875 163.628906 210.214844 164.480469 C 207.078125 166.296875 200.375 163.9375 193.144531 157.714844 C 192.3125 157 191.476562 156.238281 190.644531 155.433594 C 193.445312 152.367188 196.246094 148.800781 198.984375 144.84375 C 203.789062 144.417969 208.332031 143.71875 212.457031 142.765625 C 212.660156 143.585938 212.839844 144.386719 212.992188 145.171875 Z M 171.671875 164.164062 C 168.609375 165.25 166.171875 165.28125 164.695312 164.429688 C 161.558594 162.617188 160.253906 155.628906 162.03125 146.261719 C 162.234375 145.1875 162.476562 144.085938 162.757812 142.957031 C 166.832031 143.859375 171.34375 144.507812 176.164062 144.894531 C 178.917969 148.769531 181.804688 152.332031 184.707031 155.449219 C 184.074219 156.0625 183.4375 156.644531 182.808594 157.191406 C 178.949219 160.570312 175.082031 162.964844 171.671875 164.164062 Z M 157.320312 137.054688 C 152.46875 135.394531 148.464844 133.242188 145.71875 130.886719 C 143.25 128.777344 142.003906 126.675781 142.003906 124.972656 C 142.003906 121.351562 147.40625 116.730469 156.414062 113.589844 C 157.507812 113.207031 158.652344 112.847656 159.839844 112.511719 C 161.082031 116.5625 162.714844 120.796875 164.6875 125.074219 C 162.691406 129.421875 161.035156 133.722656 159.777344 137.824219 C 158.929688 137.578125 158.109375 137.320312 157.320312 137.054688 Z M 162.132812 104.304688 C 160.261719 94.75 161.503906 87.542969 164.628906 85.734375 C 167.957031 83.804688 175.316406 86.554688 183.074219 93.441406 C 183.570312 93.882812 184.070312 94.34375 184.570312 94.820312 C 181.679688 97.921875 178.820312 101.457031 176.09375 105.308594 C 171.414062 105.742188 166.933594 106.4375 162.816406 107.371094 C 162.558594 106.328125 162.328125 105.304688 162.132812 104.304688 Z M 205.046875 114.902344 C 204.0625 113.203125 203.050781 111.542969 202.023438 109.925781 C 205.199219 110.328125 208.238281 110.863281 211.09375 111.511719 C 210.238281 114.261719 209.167969 117.132812 207.910156 120.082031 C 207.007812 118.367188 206.054688 116.640625 205.046875 114.902344 Z M 187.546875 97.855469 C 189.507812 99.980469 191.472656 102.351562 193.402344 104.925781 C 191.457031 104.832031 189.484375 104.785156 187.5 104.785156 C 185.53125 104.785156 183.578125 104.832031 181.640625 104.921875 C 183.574219 102.375 185.554688 100.003906 187.546875 97.855469 Z M 169.933594 114.933594 C 168.949219 116.636719 168.011719 118.355469 167.125 120.078125 C 165.886719 117.140625 164.828125 114.253906 163.964844 111.46875 C 166.800781 110.832031 169.828125 110.3125 172.984375 109.917969 C 171.9375 111.550781 170.917969 113.222656 169.933594 114.933594 Z M 173.074219 140.328125 C 169.816406 139.96875 166.742188 139.476562 163.90625 138.855469 C 164.785156 136.019531 165.867188 133.074219 167.128906 130.074219 C 168.019531 131.796875 168.960938 133.511719 169.949219 135.222656 C 170.957031 136.964844 172.003906 138.667969 173.074219 140.328125 Z M 187.664062 152.390625 C 185.648438 150.21875 183.640625 147.8125 181.675781 145.226562 C 183.582031 145.300781 185.523438 145.339844 187.5 145.339844 C 189.527344 145.339844 191.535156 145.292969 193.503906 145.207031 C 191.566406 147.839844 189.609375 150.246094 187.664062 152.390625 Z M 207.949219 129.921875 C 209.277344 132.953125 210.402344 135.882812 211.292969 138.675781 C 208.40625 139.332031 205.292969 139.859375 202.011719 140.257812 C 203.042969 138.621094 204.0625 136.929688 205.066406 135.191406 C 206.082031 133.433594 207.039062 131.675781 207.949219 129.921875 Z M 201.382812 133.070312 C 199.828125 135.765625 198.230469 138.339844 196.609375 140.769531 C 193.660156 140.980469 190.609375 141.085938 187.5 141.085938 C 184.402344 141.085938 181.390625 140.996094 178.492188 140.804688 C 176.804688 138.34375 175.171875 135.761719 173.628906 133.09375 C 172.085938 130.429688 170.667969 127.746094 169.382812 125.074219 C 170.667969 122.402344 172.082031 119.710938 173.617188 117.054688 C 175.152344 114.390625 176.769531 111.820312 178.441406 109.375 C 181.398438 109.152344 184.433594 109.035156 187.5 109.035156 C 190.582031 109.035156 193.617188 109.152344 196.574219 109.378906 C 198.222656 111.808594 199.828125 114.367188 201.371094 117.03125 C 202.929688 119.726562 204.363281 122.398438 205.65625 125.015625 C 204.367188 127.679688 202.9375 130.375 201.382812 133.070312 Z M 210.148438 85.605469 C 213.484375 87.527344 214.777344 95.273438 212.683594 105.4375 C 212.550781 106.085938 212.398438 106.746094 212.234375 107.414062 C 208.109375 106.460938 203.628906 105.753906 198.9375 105.3125 C 196.199219 101.417969 193.367188 97.878906 190.523438 94.816406 C 191.289062 94.082031 192.054688 93.378906 192.8125 92.71875 C 200.15625 86.324219 207.023438 83.800781 210.148438 85.605469 Z M 187.5 116.089844 C 192.402344 116.089844 196.382812 120.066406 196.382812 124.972656 C 196.382812 129.878906 192.402344 133.859375 187.5 133.859375 C 182.59375 133.859375 178.613281 129.878906 178.613281 124.972656 C 178.613281 120.066406 182.59375 116.089844 187.5 116.089844 Z M 187.5 116.089844 " fill-opacity="1" fill-rule="nonzero"/></g></svg>